<svg width="137" height="39" fill="none" xmlns="http://www.w3.org/2000/svg"><path d="M45.878 15.149v1.77h5.9v3.197h-5.9v5.193h-3.687V11.767h9.996v3.386h-6.309v-.004zm18.535 10.155h-3.798c-.167-.362-.241-.778-.259-1.367l-.057-1.54c-.057-1.539-.755-1.77-1.787-1.77h-1.918v4.677h-3.688V11.763h6.454c3.578 0 4.886 1.901 4.886 4.01 0 1.314-.645 2.532-2.046 3.18 1.532.588 1.752 1.729 1.809 3.173l.074 1.806c.018.57.145 1.046.33 1.372zm-5.607-7.457c1.09 0 1.642-.57 1.642-1.557 0-.969-.553-1.562-1.642-1.562h-2.212v3.12h2.212zm10.168-2.698v1.788h6.085v3.156h-6.085v1.825h6.678v3.386H65.287V11.763h10.365v3.386h-6.678zm20.564-3.387l-4.811 8.331v5.211h-3.688v-5.211l-4.886-8.33h4.149l.847 1.52c.61 1.105 1.216 2.206 1.809 3.31a91.841 91.841 0 011.734-3.327l.812-1.504h4.034zm-.861 9.091h3.543c.035 1.598 1.05 1.866 2.472 1.866 1.255 0 1.844-.458 1.844-1.218 0-.779-.461-1.046-2.068-1.313l-1.032-.172c-2.968-.494-4.557-1.92-4.557-4.374 0-2.34 1.7-4.183 5.387-4.183 3.468 0 5.457 1.503 5.606 4.468h-3.468c-.057-1.064-.645-1.58-2.085-1.58-1.164 0-1.677.417-1.677 1.123 0 .82.61 1.105 1.918 1.331l1.089.19c3.209.553 4.684 1.807 4.684 4.224 0 3.025-2.362 4.392-5.79 4.392-3.965 0-5.866-1.978-5.866-4.754zm11.753-2.323c0-4.318 2.805-7.076 6.896-7.076 4.074 0 6.897 2.758 6.897 7.077 0 4.32-2.823 7.076-6.897 7.076-4.091 0-6.896-2.757-6.896-7.076zm9.956 0c0-2.394-1.216-3.784-3.06-3.784-1.843 0-3.059 1.39-3.059 3.785 0 2.413 1.216 3.785 3.059 3.785 1.844 0 3.06-1.367 3.06-3.785zm8.381-3.381v1.77h5.9v3.197h-5.9v5.193h-3.688V11.767h9.996v3.386h-6.308v-.004zm18.232 0h-3.872v10.155h-3.688V15.15h-3.872v-3.386h11.432v3.386z" fill="#fff"/><path d="M0 18.44L17.753.619l17.753 17.823-17.753 17.822L0 18.44z" fill="#18E8A4"/><path d="M30.573 18.382l-2.431-2.45-8.601 8.67v-4.894l6.174-6.22-2.427-2.445-3.747 3.775V7.983h-3.434v6.835l-3.747-3.775-2.431 2.445 6.178 6.22V38.31h3.434v-8.814l11.032-11.114z" fill="#020213"/></svg>