<svg width="16" height="16" fill="none" xmlns="http://www.w3.org/2000/svg"><path d="M14.384 4.032c-.48.208-.976.352-1.504.416a2.56 2.56 0 001.152-1.456 5.526 5.526 0 01-1.664.64 2.626 2.626 0 00-4.544 1.792c0 .208.016.4.064.592C5.712 5.92 3.792 4.864 2.496 3.28c-.928 1.664.112 3.04.8 3.504a2.52 2.52 0 01-1.184-.32c0 1.296.912 2.368 2.096 2.608-.256.08-.832.128-1.184.048.336 1.04 1.312 1.808 2.448 1.824-.896.704-2.208 1.264-3.888 1.088a7.402 7.402 0 004.032 1.184c4.832 0 7.456-4 7.456-7.456 0-.112 0-.224-.016-.336.544-.4.992-.864 1.328-1.392z" fill="#A4AFC1"/></svg>