<svg width="16" height="16" viewBox="0 0 16 16" fill="none" xmlns="http://www.w3.org/2000/svg">
<path d="M14.3998 14.3997V9.71171C14.3998 7.40771 13.9038 5.64771 11.2158 5.64771C9.91981 5.64771 9.05581 6.35171 8.70381 7.02371H8.67181V5.8557H6.12781V14.3997H8.78381V10.1597C8.78381 9.03971 8.99181 7.96771 10.3678 7.96771C11.7278 7.96771 11.7438 9.23171 11.7438 10.2237V14.3837H14.3998V14.3997Z" fill="#A4AFC1"/>
<path d="M1.80798 5.85571H4.46398V14.3997H1.80798V5.85571Z" fill="#A4AFC1"/>
<path d="M3.13585 1.59985C2.28785 1.59985 1.59985 2.28785 1.59985 3.13585C1.59985 3.98385 2.28785 4.68785 3.13585 4.68785C3.98385 4.68785 4.67185 3.98385 4.67185 3.13585C4.67185 2.28785 3.98385 1.59985 3.13585 1.59985Z" fill="#A4AFC1"/>
</svg>
