<svg width="16" height="16" viewBox="0 0 16 16" fill="none" xmlns="http://www.w3.org/2000/svg">
<path d="M14.384 4.03229C13.904 4.24029 13.408 4.38429 12.88 4.44829C13.424 4.12829 13.84 3.61629 14.032 2.99229C13.52 3.29629 12.96 3.50429 12.368 3.63229C11.888 3.12029 11.2 2.80029 10.448 2.80029C8.99198 2.80029 7.82398 3.98429 7.82398 5.42429C7.82398 5.63229 7.83998 5.82429 7.88798 6.01629C5.71198 5.92029 3.79198 4.86429 2.49598 3.28029C1.56798 4.94429 2.60798 6.32029 3.29598 6.78429C2.87998 6.78429 2.46398 6.65629 2.11198 6.46429C2.11198 7.76029 3.02398 8.83229 4.20798 9.07229C3.95198 9.15229 3.37598 9.20029 3.02398 9.12029C3.35998 10.1603 4.33598 10.9283 5.47198 10.9443C4.57598 11.6483 3.26398 12.2083 1.58398 12.0323C2.75198 12.7843 4.12798 13.2163 5.61598 13.2163C10.448 13.2163 13.072 9.21629 13.072 5.76029C13.072 5.64829 13.072 5.53629 13.056 5.42429C13.6 5.02429 14.048 4.56029 14.384 4.03229Z" fill="#A4AFC1"/>
</svg>
